<?xml version="1.0" encoding="UTF-8"?>
<svg id="Layer_3" data-name="Layer 3" xmlns="http://www.w3.org/2000/svg" viewBox="0 0 377.84 246">
  <defs>
    <style>
      .cls-1 {
        fill: #fff;
        stroke-width: 0px;
      }
    </style>
  </defs>
  <path class="cls-1" d="m94.3,14.68c.38.26.71.39,1.07.58,4.35-1.86,6.77-2.43,8.7-2.35,1.13-.09,2.74,2.31,2.5,3.19-.03.1-.03.1-.03.1,0,0,0,0,0,0,.08.23.15.47.22.7.12.36.3,1.08.63,1.28.35-.57.82-1.33,1.45-2.32.19-.6.28-1.14.18-1.83-.11-.19-.24-.39-.37-.6-1.2-2.16-1.01-3.41-2.1-3.52-.86-.2-1.69-.32-2.59-.39-2.7-.39-6.58,1.05-9.65,5.16Zm-14.24,4.8c.26.09.53.09.74.18.14.08.24.27.38.59.82-1.16,2.31-.95,4.06-1.1,1.64-.59,3.53-1.27,4.64-1.48,1.61.65,3.63,2.19,2.1,4.5.35,1.52.58,2.03.58,2.03-.81,1.86.04,1.86,1.81-.28.25-2.66.12-6.45-.44-7.56-.44-.39-1-.99-1.73-1.43-.48-.02-1-.06-1.57-.07-2.05-.03-4.47.21-6.76,1.34-1.56.98-2.96,2.11-3.82,3.27ZM.02,142.29c0,.07,0,.15.01.28,1.37,18.11,4.82,29.93,6.79,36.76,1.91,6.79,4.99,16.9,6.33,23,.06.2.11.42.16.63.05.55.1,1.11.19,1.69.08.55.18,1.13.29,1.72.01.16.02.31.04.48.13,1.72.14,3.79,1.15,6.09.79,1.52,1.91,2.6,3.16,3.57,1.27.94,2.66,1.79,4.06,2.6,2.55,1.73,4.72,3.31,6.25,4.29,8.05,3.68,16.87,4.41,24.8,4.51,10.39.16,18.5-1.4,22.14-1.15,1.97.08,3.68.36,4.48.96,3.4,1.82,19.91,5.36,28.13,8.55,6.64,3.34,22.41,8.27,35.39,9.56h.05c11.31-.82,24.22-2.46,36.84-9.27,12.06-5.47,22.43-18.18,28.38-27.63,4.79-7.61,8.97-19.39,8.54-28.43-.26-5.46-3.41-9.94-2.49-15.63.98-6.07.12-16.49-3.72-26.48-4.98-10.76-11.71-19.47-23.02-26.43-11.47-8.55-22.87-13.79-41.86-12.04-12.23-.11-21.02,2.47-27.68,6.07-6.66,3.58-11.13,8.19-14.58,12.39-2.18,3.27-4.08,5.08-5.64,5.66-.44.12-.85.19-1.24.22-1.37-3.1-3.17-7.43-4.99-11.33-4.93-8.69-11.02-15.89-14.56-21.34-.29-.46-.79-2.71-1.34-5.65-.66-3.06-.7-7.13-.36-12.2-.15-2.72-.22-4.08-.24-4.91.48-.08.95-.13,1.41-.17,4.61,0,7.97-1.68,11.01-2.29,2.12-.44,3.35-1.5,4.12-1.95.35.1.74.18,1.19.25,5.33.63,8.61-1.3,10.81-3.04,1.16,1.63,2.77,3.29,5.11,4.22,1.64.7,3.53,1.02,6.12,1.42h.03c3.08-.17,6-2.93,9.58-4.58l.07-.03c.77-.41,1.33-.93,1.62-1.45.34-.62.42-1.17.38-1.64,0-1.33-.12-2.74-.17-4.32-.12-1.64-.33-3.15-.41-4.29-.11-.95-.08-1.56.15-2.06.05-.08.09-.17.15-.25.1-.02.2-.04.28-.06.21-.04.31-.05.31-.05.95-.08,2.16-.57,3.2-1.56.09-.11,1.72-2.34,2.43-4.57.23-.77.44-1.53.47-2.57,0-.52-.03-1.14-.32-1.92-2.76-6.38-3.38-11.77-4.54-16.68-1.07-5.1-1.81-9.09-3.28-11.73-.32-1.06-.71-1.99-.92-2.86-.09-1-.21-1.89-.4-2.72-.65-1.35-1.59-2.18-2.4-2.69-1.48-.73-3.08-1.15-3.13-1.16-.39-.12-.86-.14-1.42-.06l-60.59,9.93-.57.17c-4.18,1.22-8.35,2.44-12.52,3.67-5.25,1.74-12.37,2.26-15.63,7.66-3.12,4.54-3.33,10.42-4.66,15.59-3.67,17.67-7.34,35.93-11.13,55.29-3.77,12-7.41,25.19-11.05,38.55-.62,5.1-.85,8.82-.76,11.38ZM110.84,59.37c1.86-.27,3.93-.89,5.93-2.26,1.84-1.28,3.94-2.89,4.52-4.53.44,1.33.79,2.57.76,3.9-.2,1.4-.35,2.63-.41,3.26-2.37,1.55-4.1,2.05-5.41,2.13-1.2.04-2.16-.21-3.08-.67-.85-.44-1.64-1.1-2.31-1.83ZM10.06,144.73c0-1.02.35-3.31.98-6.26.46-3.31.73-7.89.57-13.14,1.16-8.51,3.67-16.97,6.2-25.68,3.52-18.75,7.56-39.68,10.65-54.98l1.61,5.67,2.61-24.31c.89-1.61,2.11-2.91,3.85-3.6,2.76-1.03,5.59-1.95,8.43-2.88,4.21-1.37,8.4-2.79,12.6-4.18l53.9-10.18c-.07.02-.14.05-.21.08-1.36.67-2.35,1.83-3.04,3.7.17.09.26.17.33.26.03.14.05.32.09.52,1.35-1.14,2.88-2.03,4.13-2.7,1.67-.64,3.26-.76,4.66-.62,1.35.3,1.99,2.79,1.67,7.63.11.15.21.3.3.46.93-2.84,2.07-4.75,3.25,5.17,1.54,7.1,1.59,13.33,4.13,20.45,0,.02-.01.05-.02.08-.07.29-.18.69-.32,1.12-.14.42-.31.85-.48,1.23-1.48.6-5.03,1.26-7.7,3.2-2.22-13.49-7.46-21.43-7.39-22.77.13-.23.19-.31.19-.31,2.1-2.02,1.75-3.81-.23-3.6-2.76,1.25-3.91,2.91-3.29,4.01.05.15.97,9.77,6.64,26.41.01.25.04.48.09.7-.14.31-.35.62-.81,1.03-.58.48-1.58.99-2.96,1.4-2,.48-3.96.56-5.04.44-2.69-13.8-6.56-21.51-7.31-23.06-.05-.23-.06-.32-.06-.32.43-2.04.49-3.75-1.02-3.58-1.65.66-2.53,2.16-2.07,3.98.02.16.72,8.64,5.97,24.68.03.14.08.27.12.4-.16.14-.32.29-.5.45-1.93,1.45-5.24,2.68-6.81,2.58-.29-.02-.54-.07-.75-.16-.15-.07-.3-.12-.45-.16-2.21-11.24-3.78-17.79-4.7-20.25-.24-.93-.29-1.36-.29-1.36.21-2.11-.73-3.58-2.48-3.31-1.87.3-2.55,2.31-1.25,4.54.08.15.75,7.25,3.96,22.75-.3.21-.64.42-1.02.62-2.83,1.28-6.06,2.49-10,2.52-.53,0-1.08-.03-1.64-.09-2.59-.27-5-.83-7.56-2.39-.03-.09-.08-.23-.12-.41-.2-.75-.4-2.16-.9-3.87-.73-2.31-1.39-4.42-1.31-5.02v-.02s.13-.16.13-.16c.16-.26.79-.78,1.56-1.25.24.77.49,1.55.72,2.23.3.86.5,1.47.88,2.22.14.23.2.46.77,1.06.32.26.87.92,2.33,1.03.94.1,1.57-.4,1.57-.83,0-.4-.13-.73-.21-.97-.13-.48-.21-.71-.26-.91-.01-.07-.04-.22-.07-.42l-.02-.21c-.05-9.12-5.1-16.11-5.14-16.18-.19-.8-.65-1.21-1.6-.62-1.34.2-1.74.91-.88,2,0,0,.03.07.08.24.06.18.12.49.19.95.08,1.05.22,2.4.55,3.28-.19-.08-.38-.14-.57-.18-1.2.77-3.01,3.02-4.32,4.26-1.02.68-2.07,1.56-2.72,2.41-.54.09-1.24.17-2.04.18-1.51.12-3.08.08-4.23-.44-1.11-.59-2.26-1.79-3.16-4.52-.58-1.87-2.39-2.97-3.71-2.56-1.12.33-.97,1.82-.22,3.56,1,4.23,1.63,7.76,3.32,9.7,1.09.72,2.28,1.19,3.48,1.5l.19,15.33,3.48-15.02c.33-.05.66-.13,1.01-.22,2.14-.55,3.7-.89,4.48-.91.24.43.4.9.48,1.39.17,2.44.44,4.08,1.7,6.57.29.68.67,1.34,1.18,1.74,1.28.6,2.69,1.38,4.11,2.33,0,.08-.02.15-.02.23-.16,1.34-.46,4-.73,7.51-.13,4.32.28,10.48,1.54,17.18.86,3.35,1.15,4.96,2.15,5.77,4.68,5.14,9.97,13.93,13.51,19.19,4.62,7.19,8.45,15.56,8.57,26.13.01.92,0,1.84-.02,2.75-.38,10.27-1.85,20.64-5.89,32.81-.77.37-.8,1.6-.08,3.17.25.27.58.36.96.25,1.04-.62,2.25-2.05,3.06-3.68,5.69-10.41,8.53-20.94,9.16-32.23.06-1.02.1-2.04.11-3.07.09-5.26-.56-10.7-1.72-15.06.81-.26,1.57-.56,2.28-.85,1.66-.7,3.08-1.58,4.46-2.64,2.76-2.37,5.41-5.02,8.73-7.18,6.62-4.34,15.11-9.36,32.1-8.1,18.53-1.19,26.79.61,34.39,4.77,8.92,5.26,14.6,10.48,19.14,16.88,8.89,13.83,8.73,27.74,7.89,34.64.26,3.16,1.18,6.73,2.03,10.46.04,9.17-2.13,18.67-7.69,27.29-5.57,8.62-14.56,16.49-28.89,22.69-14.12,6.01-25.1,7.5-34.27,7.35-9.46.01-16.96-2.37-24.05-5.27-3.19-1.24-6.43-2.59-9.84-3.89,9.97-2.06,19.68-5.04,19.9-5.1.73-.32,1.31-.75,1.75-1.18-.89-.28-1.78-.56-2.67-.83-1.31.2-3.61.41-7.02.53-8.48,0-15.92.8-21.63.61-2.1-.06-3.75-.54-4.8-1.53-1.04-1.19-2.33-1.83-3.95-2.01-6.86.35-10.58,1.8-18.53,2.54-7.46.65-12.06,1.34-16.61,1.25-.09,0-.19,0-.26,0-2.07-.05-3.47-.37-5.02-.86-1.57-.48-3.32-1.2-5.68-1.91-7.46-2.23-13.16-3.37-18.28-7.67-.52-.43-1.05-.7-1.57-.83-.25-.68-.48-1.44-.69-2.26-.12-.72-.23-1.5-.33-2.31-.05-.45-.09-.91-.11-1.39.1-1.08.2-2.23.17-3.39-.28-1.81-.59-3.18-.96-4.16-.05-.12-.09-.24-.13-.35.45-8.26-.04-18.23,1.27-30.27.53-3.58,1.12-8.28.72-11.47-1.45,1.53-3.09,7.81-3.34,10.16-.79,3.16-1.86,6.65-2.61,9.1-1.93-4.82-4.26-13.55-4.82-26.97,0-.03,0-.09,0-.16ZM66.85,23.91c-.19.71.04,1.12.45.86.15-.03.3-.13.43-.27.3-.13.66-.28,1.02-.37,2.81.16,5.47-.79,8.03-1.02,1.75,2.11,2.06,5.66,2.21,6.16.01.02.02.05.04.07,0,0,0,0,0,0,.27.09.67-.11,1.16-.58-.09-.19-.14-.5-.16-.98.11-2.65-.46-5.98-.86-6.82-.47.09-1.11-.11-1.9-.31-3.24-.23-7.39,1.46-10.42,3.26Zm37.45,150.8c-.65.43.03,1.45,1.82,2.24,15.42,9.75,26.34,15.86,41.47,16.29.68.2,1.38.39,2.11.57,26.44-1.61,41.85-13.3,50.98-24.39,1.06-.61,1.14-1.49.25-1.69-.92-.14-2.66.32-4.01.75-9.37,5.77-24.76,16.18-48.36,16.2-.49,0-.97,0-1.45-.02-11.11-.1-21.87-4.42-38.64-9.45-1.89-.41-3.66-.89-4.17-.5Z"/>
  <path class="cls-1" d="m372.89,133.24v47.44l-19.57,12.52,24.52,46.91h-64.99l-8.44-15.62c-21.77,14.36-42.39,21.53-61.85,21.53s-36.08-6.78-47.08-20.33c-11-13.55-16.5-29.89-16.5-49,0-15.29,3.24-27.28,9.73-35.97,6.49-8.69,16.22-15.75,29.19-21.2-18.54-13.32-27.8-31.33-27.8-54.04,0-19.57,6.6-35.33,19.81-47.26C223.11,6.28,241.3.31,264.46.31c20.85,0,37.27,5.85,49.26,17.55,11.99,11.7,17.98,26.58,17.98,44.66,0,19-7.3,35.85-21.89,50.56l24.77,44.78,38.31-24.62Zm-92.53,59.48l-22.67-37.94c-8.69,7.88-13.04,16.39-13.04,25.55,0,6.6,1.36,11.55,4.07,14.86,2.72,3.3,6.73,4.95,12.05,4.95,5.66,0,12.19-2.47,19.58-7.41Zm-15.89-108.83c7.99-10.31,11.99-20.16,11.99-29.54,0-4.05-1.16-7.76-3.48-11.12-2.32-3.36-5.56-5.04-9.73-5.04-3.82,0-6.72,1.28-8.69,3.82-1.97,2.55-2.95,6.43-2.95,11.64,0,10.89,4.28,20.97,12.86,30.23Z"/>
</svg>